PathFileType	4	(X/Y/Z)	C:\Users\Basilio\Documents\Thesis Gigler\squatting_fais\c3dfiles\019\SJ_pre3\markers_experimental.trc
DataRate	CameraRate	NumFrames	NumMarkers	Units	OrigDataRate	OrigDataStartFrame	OrigNumFrames
200.000000	200.000000	4	59	mm	200.000000	813	1302
Frame#	Time	FHD			RBHD			C7			T10			CLAV			LSHO			LUUPA			LMUPA			LDUPA			LLEP			LMEP			LRAD			LUL			LRFIN			RSHO			RUPA1			RMUPA			RDUPA			RLEP			RMEP			RRAD			RUL			RUFIN			LASI			RASI			USACR			LSACR			RSACR			LTHI1			LTHI2			LTHI3			LTHI4			LLFC			LTIB1			LTIB2			LTIB3			LTIB4			LLMAL			LMMAL			LHEE			LMT1			LMT2			LMT5			RTHI			RTHI2			RTHI3			RTHI4			RLFC			RTIB1			RTIB2			RTIB3			RTIB4			RLMAL			RMMAL			RHEE			RMT1			RMT2			RMT5			LBHD			
		X1	Y1	Z1	X2	Y2	Z2	X3	Y3	Z3	X4	Y4	Z4	X5	Y5	Z5	X6	Y6	Z6	X7	Y7	Z7	X8	Y8	Z8	X9	Y9	Z9	X10	Y10	Z10	X11	Y11	Z11	X12	Y12	Z12	X13	Y13	Z13	X14	Y14	Z14	X15	Y15	Z15	X16	Y16	Z16	X17	Y17	Z17	X18	Y18	Z18	X19	Y19	Z19	X20	Y20	Z20	X21	Y21	Z21	X22	Y22	Z22	X23	Y23	Z23	X24	Y24	Z24	X25	Y25	Z25	X26	Y26	Z26	X27	Y27	Z27	X28	Y28	Z28	X29	Y29	Z29	X30	Y30	Z30	X31	Y31	Z31	X32	Y32	Z32	X33	Y33	Z33	X34	Y34	Z34	X35	Y35	Z35	X36	Y36	Z36	X37	Y37	Z37	X38	Y38	Z38	X39	Y39	Z39	X40	Y40	Z40	X41	Y41	Z41	X42	Y42	Z42	X43	Y43	Z43	X44	Y44	Z44	X45	Y45	Z45	X46	Y46	Z46	X47	Y47	Z47	X48	Y48	Z48	X49	Y49	Z49	X50	Y50	Z50	X51	Y51	Z51	X52	Y52	Z52	X53	Y53	Z53	X54	Y54	Z54	X55	Y55	Z55	X56	Y56	Z56	X57	Y57	Z57	X58	Y58	Z58	X59	Y59	Z59	

814	4.065	2.318589448928833	2071.71533203125	-918.1978759765627	-137.5901184082032	2081.251708984375	-903.670837402344	-225.1471252441407	1911.501342773438	-959.9705810546877	-303.3229980468751	1630.0107421875	-945.1770019531252	-91.42823791503908	1850.906616210938	-974.6798095703127	-176.3159790039063	1889.34228515625	-1119.696655273438	-211.1198730468751	1747.476806640625	-1221.87353515625	-203.6110076904297	1704.845336914063	-1197.685180664063	-233.0872344970704	1689.191650390625	-1246.750366210938	-283.6622314453126	1639.471435546875	-1293.441284179688	-343.5069580078126	1636.587524414063	-1260.880981445313	-263.7236022949219	1421.881103515625	-1157.10888671875	-245.9826965332032	1398.306030273438	-1217.502685546875	-222.1483459472657	1391.788696289063	-1121.227905273438	-137.8798217773438	1892.292114257813	-828.6917724609377	-213.7911071777344	1785.316284179688	-680.4588012695314	-187.3091583251953	1743.281127929688	-681.8281860351564	-227.926498413086	1729.884887695313	-639.0623779296876	-240.897689819336	1657.070556640625	-606.0965576171876	-303.7968750000001	1665.057006835938	-623.4538574218751	-250.4293212890626	1438.163452148438	-742.4688110351564	-224.432846069336	1410.404296875	-691.1467895507814	-207.4120330810547	1407.938842773438	-781.4919433593752	-215.7489471435547	1405.938110351563	-1061.214721679688	-189.4426727294922	1404.214599609375	-863.252380371094	-335.4454650878907	1500.624389648438	-939.4503173828127	-352.5890502929688	1468.463989257813	-962.110290527344	-343.6236877441407	1472.630981445313	-906.3500976562502	-288.5821838378907	1155.565185546875	-1151.348388671875	-242.7190856933594	1084.71630859375	-1164.787353515625	-196.338119506836	1094.231567382813	-1155.908081054688	-260.5484619140626	1026.432006835938	-1156.138671875	-251.7725524902344	929.1157836914065	-1153.16015625	-207.001937866211	785.3056640625002	-1143.809692382813	-273.4909973144532	752.8511352539064	-1190.923217773438	-233.7424316406251	743.6179199218751	-1175.628173828125	-236.8316345214844	660.2640380859376	-1151.720825195313	-322.6791076660157	541.1777343750001	-1179.2568359375	-290.3258666992188	535.3731689453126	-1101.599975585938	-375.1156921386719	520.7575683593751	-1121.412475585938	-194.4882049560547	414.4827575683595	-1133.0361328125	-196.0407409667969	415.368377685547	-1172.150512695313	-251.278305053711	412.0129394531251	-1216.515380859375	-245.0656890869141	1223.700927734375	-743.6712646484376	-209.5945587158204	1170.4326171875	-743.3889160156251	-182.4657745361328	1164.076293945313	-764.1201782226564	-235.7555541992188	1089.727905273438	-726.4989013671876	-273.0871276855469	928.215270996094	-731.2368164062501	-236.0806579589844	743.0216674804689	-751.6439819335939	-295.9015502929688	676.1774291992189	-685.5230712890626	-259.3215637207032	667.8978271484376	-713.5111083984376	-266.1729736328126	618.6434936523439	-745.0989379882814	-331.5142517089844	540.0487060546876	-692.0523071289064	-308.4319152832032	536.5566406250001	-764.7993774414064	-390.7088012695314	522.6829223632814	-741.9507446289064	-208.6734771728516	415.1067504882814	-750.3246459960939	-211.5613861083985	414.8891601562501	-705.8920288085939	-259.5194396972657	409.8243103027345	-658.6157836914064	-151.1119995117188	2082.38037109375	-1043.0498046875	
815	4.07	2.584253787994385	2066.794921875	-918.3623046875002	-137.4527893066407	2076.137451171875	-903.8408813476565	-226.0980834960938	1906.759643554688	-959.5620727539065	-303.4409484863282	1625.210205078125	-945.3154296875002	-91.27525329589845	1845.958618164063	-974.9467773437502	-176.2950286865235	1884.370971679688	-1119.906616210938	-211.3168029785157	1742.604614257813	-1222.04638671875	-203.5760498046876	1699.84423828125	-1197.807861328125	-233.3161926269532	1684.262939453125	-1246.752563476563	-283.6165161132813	1634.676391601563	-1293.651245117188	-343.8162536621094	1631.66650390625	-1260.83251953125	-264.0846557617188	1416.922485351563	-1157.2529296875	-246.6321411132813	1393.500244140625	-1217.755615234375	-222.9770965576172	1386.684692382813	-1121.803466796875	-137.5447082519532	1887.022827148438	-828.9759521484377	-213.4994049072266	1780.607788085938	-680.5935058593751	-187.0867767333985	1738.079956054688	-681.8162841796876	-227.9372558593751	1724.991088867188	-639.2011108398439	-241.0706024169922	1652.069580078125	-606.1545410156251	-303.9747924804688	1660.41845703125	-623.7320556640626	-250.8601379394532	1433.4541015625	-742.7566528320314	-224.9143371582032	1405.6279296875	-691.3854370117189	-207.5542144775391	1403.141235351563	-781.6483154296877	-215.9373779296876	1400.91064453125	-1061.242309570313	-189.4802551269532	1399.318237304688	-863.638610839844	-335.5986328125001	1495.955444335938	-939.6431274414065	-352.6865844726563	1463.986083984375	-962.3063964843752	-343.5155639648438	1467.800170898438	-906.7088623046877	-288.9838867187501	1150.778686523438	-1151.614379882813	-242.9716339111329	1079.9541015625	-1165.0576171875	-196.6074371337891	1089.43994140625	-1156.028930664063	-260.7902526855469	1021.705200195313	-1156.437866210938	-252.0181121826172	924.3817138671877	-1153.5595703125	-207.2187652587891	780.5884399414065	-1144.278930664063	-273.6465454101563	748.0756225585939	-1191.258544921875	-233.4423370361329	738.9384155273439	-1176.248168945313	-236.596420288086	655.5834960937501	-1152.456787109375	-322.5421752929688	536.5267944335939	-1179.73681640625	-289.8278503417969	530.5733032226564	-1102.028076171875	-374.8904724121094	516.3940429687501	-1121.648681640625	-194.8533020019532	409.1398010253907	-1133.712646484375	-196.456039428711	410.1978454589845	-1172.765014648438	-252.0829772949219	407.0751953125001	-1217.007202148438	-245.9284057617188	1219.164794921875	-743.6161499023439	-210.1430969238282	1165.67919921875	-743.1172485351564	-183.0633850097657	1159.379028320313	-763.4952392578126	-236.6609039306641	1085.017333984375	-726.3533325195314	-273.5480041503907	923.691589355469	-731.0010986328126	-235.811264038086	738.2547607421876	-750.9644775390626	-295.6951599121094	671.5045776367189	-684.9313354492189	-258.8670043945313	663.2357177734376	-712.9626464843751	-265.5020141601563	613.8383789062501	-744.3295288085939	-330.5965270996094	535.1173095703126	-691.4065551757814	-307.9682006835938	531.8647460937501	-764.2028198242189	-390.090301513672	517.8251342773439	-741.2221679687501	-207.973373413086	410.3910217285157	-749.6597290039064	-210.9884033203126	410.1317749023439	-705.2327880859376	-258.8852844238282	404.9278564453126	-657.8750610351564	-150.5347442626953	2077.2705078125	-1043.248779296875	
816	4.075	2.775408983230591	2061.896240234375	-918.7307128906252	-137.1167755126953	2071.026611328125	-903.990417480469	-225.8830566406251	1901.598510742188	-959.636657714844	-303.2242431640626	1620.157104492188	-945.4868164062502	-90.99800872802736	1840.481567382813	-975.0551757812502	-176.0954284667969	1879.12353515625	-1120.01318359375	-211.5167236328126	1737.429931640625	-1222.1328125	-203.8096771240235	1694.760986328125	-1197.888916015625	-233.5313110351563	1679.090576171875	-1246.860961914063	-284.1671752929688	1629.466064453125	-1293.420654296875	-344.0560302734376	1626.590576171875	-1260.828002929688	-264.7135009765626	1411.765502929688	-1157.447143554688	-247.2540893554688	1387.895874023438	-1217.587890625	-222.8772888183594	1381.8046875	-1121.695922851563	-137.1730651855469	1881.79638671875	-829.145446777344	-213.4722900390626	1775.27392578125	-680.7728881835939	-187.2511291503907	1732.87060546875	-682.0282592773439	-227.7761688232422	1720.164306640625	-639.3843383789064	-241.4484863281251	1646.948486328125	-606.1945190429689	-304.2497253417969	1655.702514648438	-623.9741210937501	-251.0981597900391	1428.4775390625	-742.9383544921876	-225.3582763671876	1400.549560546875	-691.5362548828126	-207.8634796142579	1398.054931640625	-781.8747558593752	-216.0954284667969	1395.723510742188	-1061.318115234375	-190.1420135498047	1394.314208984375	-863.6514892578127	-335.6148376464844	1491.108642578125	-939.7968750000002	-352.8381652832032	1459.151489257813	-962.4792480468752	-343.6703491210938	1463.066772460938	-906.8963623046877	-289.3493652343751	1145.7373046875	-1151.804443359375	-243.2506713867188	1074.917236328125	-1165.3505859375	-196.8843688964844	1084.491333007813	-1156.18994140625	-261.1055603027344	1016.774230957031	-1156.681396484375	-252.1099395751954	919.3414306640627	-1153.8955078125	-207.2494201660157	775.6612548828127	-1144.850341796875	-273.5091552734376	742.9246826171876	-1191.973754882813	-233.9078521728516	733.8839721679689	-1176.563232421875	-236.6805725097657	650.5054931640626	-1152.815673828125	-322.0134887695313	531.4160156250001	-1180.110229492188	-289.6870422363282	525.6480712890626	-1102.535278320313	-374.7263183593751	511.9172363281251	-1121.883422851563	-195.2341308593751	403.4219970703126	-1134.466430664063	-197.0437927246094	404.4865722656251	-1173.501953125	-252.6756744384766	401.8338317871095	-1217.522827148438	-246.4884643554688	1214.12109375	-743.4895019531251	-210.9362487792969	1160.7978515625	-742.8439941406251	-183.6474151611328	1154.662963867188	-763.3524780273439	-237.1401062011719	1080.135498046875	-726.0775146484376	-273.8526611328126	918.8528442382815	-730.6643066406251	-235.7464294433594	733.4637451171876	-750.3782958984376	-295.3874816894532	666.5289306640626	-684.2697753906251	-258.3942565917969	658.2808837890626	-712.2572021484376	-265.2160644531251	608.9591674804689	-743.6533813476564	-330.0069580078126	530.3055419921876	-690.7183837890626	-307.3651428222657	526.8862915039064	-763.4600830078126	-389.2901000976564	512.8820800781251	-740.5908813476564	-207.1271057128907	405.3628845214845	-748.8834838867189	-210.208724975586	405.1524047851564	-704.4304199218751	-258.2958374023438	399.8052673339845	-657.0429077148439	-149.6825408935547	2071.853271484375	-1043.449951171875	
817	4.08	3.232242107391358	2056.2685546875	-918.8624267578127	-136.0516815185547	2065.470458984375	-904.4765625000002	-225.484848022461	1896.215698242188	-959.7966918945315	-303.3559875488282	1614.921508789063	-945.6152343750002	-90.88442993164064	1834.840698242188	-975.2312622070315	-175.954574584961	1873.636962890625	-1120.253662109375	-211.5173645019532	1731.933471679688	-1222.250122070313	-204.1255340576172	1689.349731445313	-1197.942016601563	-233.7519073486329	1673.667114257813	-1246.83642578125	-284.1512145996094	1624.232543945313	-1293.618774414063	-344.2528076171876	1621.153930664063	-1260.78564453125	-264.9834899902344	1406.273559570313	-1157.449951171875	-247.8255157470704	1382.627807617188	-1217.869018554688	-223.5825347900391	1376.114135742188	-1121.934204101563	-136.4666137695313	1876.716430664063	-828.726989746094	-213.2684020996094	1770.029296875	-680.8850097656251	-187.2929229736328	1727.324462890625	-682.2916259765626	-227.9581604003907	1714.711059570313	-639.5509033203126	-241.972640991211	1641.959106445313	-606.6305541992189	-304.6293334960938	1650.192993164063	-624.1630859375001	-251.6252136230469	1423.274780273438	-743.2062377929689	-226.0923919677735	1395.11572265625	-691.7726440429689	-208.2819519042969	1392.870727539063	-782.0457763671877	-216.2543182373047	1390.2763671875	-1061.411499023438	-190.1796264648438	1388.88427734375	-863.907409667969	-335.6931457519532	1486.013549804688	-939.9581298828127	-352.8554077148438	1454.08544921875	-962.6362304687502	-343.8355102539063	1458.036865234375	-907.0505371093752	-289.9284362792969	1140.41162109375	-1152.19970703125	-243.4617614746094	1069.547119140625	-1165.535888671875	-197.3583984375001	1079.352661132813	-1156.458984375	-261.2891540527344	1011.421081542969	-1156.892822265625	-252.3897705078126	914.1323242187502	-1154.273193359375	-207.483139038086	770.5509033203127	-1145.528686523438	-273.7053833007813	737.8073730468751	-1192.101806640625	-233.735092163086	728.8120727539064	-1177.345581054688	-236.3452911376954	645.3828735351564	-1153.584838867188	-321.7814025878907	526.1852416992189	-1180.603759765625	-289.3136291503907	520.4827270507814	-1103.15283203125	-374.1926269531251	507.367645263672	-1122.12939453125	-195.5488891601563	397.6172180175782	-1135.350952148438	-197.5001831054688	398.590057373047	-1174.361694335938	-253.3096313476563	396.3727416992189	-1218.07568359375	-247.2013702392579	1208.986938476563	-743.4209594726564	-211.4782409667969	1155.70556640625	-742.7080688476564	-184.0752868652344	1149.251098632813	-762.7880859375001	-237.6422729492188	1075.567749023438	-726.0327148437501	-274.2602539062501	913.617370605469	-730.4111938476564	-235.3412170410157	728.2873535156251	-749.7119140625001	-295.2173461914063	661.3009033203126	-683.6903076171876	-257.9948730468751	653.2391357421876	-711.5465698242189	-264.9027709960938	603.8849487304689	-743.0366821289064	-329.7010803222657	525.0220336914064	-689.8597412109376	-306.6591186523438	521.6663818359376	-762.6779174804689	-388.7368469238282	507.7400207519532	-740.0100708007814	-206.3424835205079	400.2489318847657	-748.0523071289064	-209.4090270996094	399.9908752441407	-703.5012207031251	-257.6873779296876	394.6666259765626	-656.4436645507814	-150.8648529052735	2066.646728515625	-1043.534423828125	
